<svg width="512" height="512" viewBox="0 0 512 512" fill="none" xmlns="http://www.w3.org/2000/svg">
<g clip-path="url(#clip0_6606_30487)">
<rect width="512" height="512" fill="black"/>
<path d="M392.008 240.061C391.866 238.869 391.702 237.677 391.527 236.475C391.527 236.409 391.516 236.355 391.505 236.289C391.319 235.032 391.123 233.786 390.893 232.528C390.445 230.003 389.931 227.5 389.352 225.029L190.269 260.132C188.378 227.532 211.215 197.863 244.142 192.058L231.614 121C159.484 133.714 110.356 200.836 118.981 272.704C118.981 272.704 118.981 272.725 118.981 272.747C119.123 273.939 119.287 275.141 119.462 276.333C119.462 276.399 119.473 276.453 119.484 276.519C119.67 277.776 119.867 279.022 120.096 280.279C120.544 282.805 121.058 285.308 121.638 287.779L320.72 252.676C322.612 285.275 299.775 314.945 266.848 320.75L279.376 391.808C351.505 379.094 400.644 311.96 392.019 240.104C392.019 240.104 392.019 240.082 392.019 240.061H392.008Z" fill="white"/>
</g>
<defs>
<clipPath id="clip0_6606_30487">
<rect width="512" height="512" rx="70" fill="white"/>
</clipPath>
</defs>
</svg>
