<svg width="26" height="26" viewBox="0 0 26 26" fill="none" xmlns="http://www.w3.org/2000/svg">
<path d="M8.10165 19.0786L13.0007 14.1793L17.8997 19.0786L19.0793 17.8989L14.18 12.9999L19.0793 8.10092L17.8997 6.92125L13.0007 11.8206L8.10165 6.92125L6.92199 8.10092L11.8213 12.9999L6.92199 17.8989L8.10165 19.0786ZM13.003 25.6666C11.2601 25.6666 9.61932 25.3341 8.08065 24.6693C6.54198 24.0044 5.19876 23.0984 4.05098 21.9513C2.90343 20.8039 1.99698 19.4613 1.33165 17.9233C0.66654 16.3853 0.333984 14.7449 0.333984 13.0023C0.333984 11.2503 0.666429 9.60347 1.33132 8.06192C1.99621 6.52036 2.90221 5.17947 4.04932 4.03925C5.19665 2.89903 6.53932 1.99625 8.07732 1.33092C9.61532 0.665807 11.2557 0.333252 12.9983 0.333252C14.7503 0.333252 16.3971 0.665696 17.9387 1.33058C19.4802 1.99547 20.8211 2.89781 21.9613 4.03759C23.1015 5.17736 24.0043 6.5177 24.6697 8.05859C25.3348 9.59947 25.6673 11.2458 25.6673 12.9976C25.6673 14.7405 25.3349 16.3813 24.67 17.9199C24.0051 19.4586 23.1028 20.8018 21.963 21.9496C20.8232 23.0971 19.4829 24.0036 17.942 24.6689C16.4011 25.334 14.7548 25.6666 13.003 25.6666Z" fill="#FF8630"/>
</svg>
