<svg width="1440" height="1472" viewBox="0 0 1440 1472" fill="none" xmlns="http://www.w3.org/2000/svg">
<g opacity="0.8">
<g clip-path="url(#clip0_6594_21018)">
<path d="M834.772 342.387C885.776 256.349 974.758 177.818 1122.55 177.818" stroke="#AB40FF" stroke-width="33.856" stroke-linecap="round" stroke-linejoin="round"/>
<path d="M608.966 52.6921C625.004 50.5871 661.373 51.6808 678.552 72.8964" stroke="#FF63DD" stroke-width="33.856" stroke-linecap="round" stroke-linejoin="round"/>
<path d="M746.772 143.089C757.301 217.702 758.73 366.356 782.883 398.544C819.83 447.782 858.085 397.405 955.181 328.256C1049.54 261.059 1079.49 259.072 1196.59 238.832" stroke="#FF596D" stroke-width="33.856" stroke-linecap="round" stroke-linejoin="round"/>
<path d="M468.092 405.839C445.539 366.007 409.285 260.958 444.698 159.411C488.964 32.4785 582.646 -64.5249 690.023 -4.71885C776.209 43.2849 794.934 149.158 799.62 160.591" stroke="#FFEE59" stroke-width="33.856" stroke-linecap="round" stroke-linejoin="round"/>
<path d="M468.092 1877.84C445.539 1838.01 409.285 1732.96 444.698 1631.41C488.964 1504.48 582.646 1407.47 690.023 1467.28C776.209 1515.28 794.934 1621.16 799.62 1632.59" stroke="#FFEE59" stroke-width="33.856" stroke-linecap="round" stroke-linejoin="round"/>
<path d="M613.906 291.52C634.506 410.026 662.711 666.723 471.203 838.339C279.696 1009.96 263.233 1132.61 278.941 1172.49" stroke="#AB40FF" stroke-width="33.856" stroke-linecap="round" stroke-linejoin="round"/>
<path d="M248.001 971.599C234.003 925.258 256.781 876.064 309.158 859.21" stroke="#40FF92" stroke-width="33.856" stroke-linecap="round" stroke-linejoin="round"/>
<path d="M374.681 833.274C428.619 781.949 538.133 649.873 544.685 532.163C552.876 385.027 485.789 117.724 602.738 117.724C701.261 117.724 693.982 430.931 721.795 487.085C755.655 555.449 806.131 541.223 905.501 457.939C1032.9 351.165 1081.63 334.733 1181.36 314.262" stroke="#40BAFF" stroke-width="33.856" stroke-linecap="round" stroke-linejoin="round"/>
<path d="M683.597 572.093C702.491 607.351 778.978 656.054 844.036 606.22C925.358 543.927 1052.26 360.21 1318.26 426.127" stroke="#FF596D" stroke-width="33.856" stroke-linecap="round" stroke-linejoin="round"/>
<path d="M744.244 1394.79C744.243 1319.13 782.916 1259.22 799.615 1238.96C927.187 1084.14 1206.16 1062.64 1338.71 1317" stroke="#40FF92" stroke-width="33.856" stroke-linecap="round" stroke-linejoin="round"/>
<path d="M1223.53 855.158C1277.92 908.592 1350.49 1028.49 1231.55 1072.79C1114.51 1116.39 1043.41 912.494 834.478 1120.48" stroke="#40BAFF" stroke-width="33.856" stroke-linecap="round" stroke-linejoin="round"/>
<path d="M1220.75 -609.569C1264.4 -567.893 1396.78 -400.443 1260.04 -384.972C1135.93 -370.932 1043.41 -559.506 834.478 -351.515M744.244 -77.2067C744.243 -152.868 782.916 -212.778 799.615 -233.043C927.187 -387.863 1239.57 -395.639 1364.39 -99.8922" stroke="#40FF92" stroke-width="33.856" stroke-linecap="round" stroke-linejoin="round"/>
<path d="M812.979 1451.41C796.019 1350.11 917.047 1076.08 1203.65 1283.1C1231.06 1305.74 1255.13 1327.47 1304.55 1429.11" stroke="#FF9950" stroke-width="33.856" stroke-linecap="round" stroke-linejoin="round"/>
<path d="M1105.53 1586.39C1056.72 1602.81 954.673 1595.5 915.388 1514.97C866.283 1414.31 932.091 1298.77 1067.48 1312.36C1175.8 1323.23 1204.39 1388.86 1240.17 1473.53C1277.11 1560.93 1432.95 1646.05 1585.35 1473.53" stroke="#40BAFF" stroke-width="33.856" stroke-linecap="round" stroke-linejoin="round"/>
<path d="M1105.53 114.388C1056.72 130.814 954.673 123.5 915.388 42.9698C866.283 -57.6925 932.091 -173.225 1067.48 -159.638C1175.8 -148.769 1178.61 -66.7308 1240.17 1.52841C1285.79 52.1088 1314.64 107.162 1429.31 90.8959" stroke="#40BAFF" stroke-width="33.856" stroke-linecap="round" stroke-linejoin="round"/>
<path d="M299.11 1262.12C290.323 1288.99 286.395 1365.7 340.977 1457.58" stroke="#40BAFF" stroke-width="33.856" stroke-linecap="round" stroke-linejoin="round"/>
<path d="M1552.69 -538.985C1601.77 -551.835 1975.01 -423.775 1424.18 -27.8708" stroke="#40FF92" stroke-width="33.856" stroke-linecap="round" stroke-linejoin="round"/>
<path d="M1223.91 724.54C1337.64 771.519 1438.61 632.64 1498.29 557.359C1557.98 482.079 1697.5 268.995 1855.25 489.276" stroke="#FF9950" stroke-width="33.856" stroke-linecap="round" stroke-linejoin="round"/>
<path d="M-248.09 724.54C-134.363 771.519 -33.3946 632.64 26.2922 557.359C85.979 482.079 225.504 268.995 383.248 489.276" stroke="#FF9950" stroke-width="33.856" stroke-linecap="round" stroke-linejoin="round"/>
<path d="M1316.63 798.486C1461.84 747.629 1542.35 659.992 1565.71 593.137C1595.29 508.441 1663.37 455.101 1715.79 470.125C1829.24 502.636 1838.76 662.943 1711.07 720.206C1583.38 777.47 1590.79 693.165 1343.86 934.646" stroke="#FF63DD" stroke-width="33.856" stroke-linecap="round" stroke-linejoin="round"/>
<path d="M-155.37 798.487C-10.1572 747.629 70.3532 659.993 93.707 593.138C123.293 508.441 193.695 466.541 246.119 481.565C359.564 514.076 366.764 662.943 239.072 720.207C111.379 777.471 118.79 693.165 -128.138 934.647" stroke="#FF63DD" stroke-width="33.856" stroke-linecap="round" stroke-linejoin="round"/>
<path d="M1496.84 672.606C1889.17 583.497 1929.64 449.645 1952.99 382.79C1982.58 298.094 2050.65 244.754 2103.08 259.777C2216.52 292.289 2226.05 452.595 2098.36 509.859C1970.66 567.123 1650.49 652.894 1651.72 1016.98" stroke="#40FF92" stroke-width="33.856" stroke-linecap="round" stroke-linejoin="round"/>
<path d="M1936.04 514.442C1946.82 569.742 1921.49 704.169 1733.9 799.472C1499.4 918.6 1341.51 996.47 1341.51 1115.56" stroke="#40FF92" stroke-width="33.856" stroke-linecap="round" stroke-linejoin="round"/>
<path d="M464.035 514.442C474.82 569.742 449.492 704.169 261.897 799.472C27.4035 918.6 -130.493 996.47 -130.493 1115.56" stroke="#40FF92" stroke-width="33.856" stroke-linecap="round" stroke-linejoin="round"/>
<path d="M172.739 574.743C185.325 548.982 226.688 542.915 241.481 568.781C259.973 601.113 264.445 666.227 137.117 677.635" stroke="#AB40FF" stroke-width="33.856" stroke-linecap="round" stroke-linejoin="round"/>
<path d="M979.865 1436.67C989.455 1388.72 1046.78 1380.99 1074.24 1383.12C1161.45 1394.41 1164.79 1463.43 1119.92 1501.6C1075.04 1539.76 967.877 1496.6 979.865 1436.67Z" stroke="#40FF92" stroke-width="33.856" stroke-linecap="round" stroke-linejoin="round"/>
<path d="M979.865 -35.331C989.455 -83.2769 1046.78 -91.0109 1074.24 -88.8847C1161.45 -77.5864 1164.79 -8.56701 1119.92 29.5962C1075.04 67.7595 967.877 24.6014 979.865 -35.331Z" stroke="#40FF92" stroke-width="33.856" stroke-linecap="round" stroke-linejoin="round"/>
<path d="M512.864 1170.55C547.357 1162.69 631.334 1122.83 691.295 1026.33C751.256 929.822 820.93 912.543 848.271 915.966" stroke="#FFEE59" stroke-width="33.856" stroke-linecap="round" stroke-linejoin="round"/>
<path d="M480.058 1276.77C529.457 1276.69 650.372 1247.74 738.836 1132.57C849.416 988.615 934.352 880.403 1153.97 972.035" stroke="#AB40FF" stroke-width="33.856" stroke-linecap="round" stroke-linejoin="round"/>
<path d="M347.375 1160.06C386.487 1043.87 461.956 855.899 660.269 791.224C858.582 726.549 1049.21 830.344 1119.73 890.325" stroke="#FF63DD" stroke-width="33.856" stroke-linecap="round" stroke-linejoin="round"/>
<path d="M705.162 892.032C710.696 880.186 748.723 851.917 776.435 846.882" stroke="#40BAFF" stroke-width="33.856" stroke-linecap="round" stroke-linejoin="round"/>
<path d="M819.621 30.109C833.747 34.1251 907.794 100.981 871.248 172.602" stroke="#40FF92" stroke-width="33.856" stroke-linecap="round" stroke-linejoin="round"/>
<path d="M178.249 125.091C155.975 153.686 131.736 195.071 50.1954 206.122" stroke="#40BAFF" stroke-width="33.856" stroke-linecap="round" stroke-linejoin="round"/>
<path d="M535.547 1056.48C565.407 1043.51 601.459 1035.4 662.768 936.192" stroke="#40BAFF" stroke-width="33.856" stroke-linecap="round" stroke-linejoin="round"/>
<path d="M635.843 724.975C678.627 700.425 798.686 665.351 936.654 721.459C1074.62 777.568 1132.48 712.843 1146.98 666.301C1136.94 720.572 1134.04 823.159 1202.72 799.333" stroke="#40FF92" stroke-width="33.856" stroke-linecap="round" stroke-linejoin="round"/>
<path d="M906.531 641.601C961.142 625.526 993.232 524.989 1042.62 524.989C1098.54 524.989 989.261 649.077 1042.62 656.733C1109.3 666.301 1174.28 441.968 1222.86 501.584C1252.83 538.352 1170.9 619.859 1233.32 648.103C1273.82 666.428 1361.67 608.304 1392.51 519.616" stroke="#FFEE59" stroke-width="33.856" stroke-linecap="round" stroke-linejoin="round"/>
<path d="M1174.29 41.4369C1141.68 170.605 1275.64 135.571 1275.64 274.381" stroke="#40FF92" stroke-width="33.856" stroke-linecap="round" stroke-linejoin="round"/>
<path d="M1246.64 100.611C1264.74 129.536 1294.49 162.842 1362.56 158.534" stroke="#FF9950" stroke-width="33.856" stroke-linecap="round" stroke-linejoin="round"/>
<path d="M611.837 899.245C554.336 944.526 516.707 970.044 447.267 1100.39C384.109 1218.95 385.8 1347.5 457.498 1367.56C529.195 1387.63 547.275 1351.81 579.085 1336.72C610.894 1321.63 661.232 1315.99 680.064 1377.87" stroke="#FF9950" stroke-width="33.856" stroke-linecap="round" stroke-linejoin="round"/>
<path d="M385.516 26.128C311.843 243.91 322.441 305.22 385.517 398.029" stroke="#FF596D" stroke-width="33.856" stroke-linecap="round" stroke-linejoin="round"/>
<path d="M-140.102 1696.66C-49.4591 1768.53 96.0481 1786.79 198.205 1696.66C295.346 1610.95 257.215 1490.55 230.662 1366.9C213.119 1285.2 222.246 1150.73 217.202 1093.77C206.889 977.334 128.58 955.622 80.1511 993.158C31.7223 1030.69 -44.0854 1102.97 -87.7302 1358.66C-97.6172 1421.76 -112.642 1502.27 -67.3431 1516.23C-22.2263 1530.14 56.9664 1510.27 72.0544 1375" stroke="#FF63DD" stroke-width="33.856" stroke-linecap="round" stroke-linejoin="round"/>
<path d="M-140.102 224.656C-49.4591 296.533 96.0481 314.786 198.205 224.656C295.346 138.951 257.215 18.5516 230.662 -105.101C213.119 -186.797 222.246 -321.274 217.202 -378.232C206.889 -494.666 128.58 -516.379 80.1511 -478.843C31.7223 -441.307 -44.0854 -369.031 -87.7302 -113.345C-97.6172 -50.2454 -112.642 30.2656 -67.3431 44.2323C-22.2263 58.1427 56.9664 38.2717 72.0544 -97.0051" stroke="#FF63DD" stroke-width="33.856" stroke-linecap="round" stroke-linejoin="round"/>
<path d="M-51.5195 1613.46C176.272 1638.26 140.136 1433.8 140.136 1377.94C140.136 1322.08 143.079 1192.61 149.924 1133.59C156.768 1074.56 97.5931 1038.05 50.857 1153.31C4.12099 1268.57 6.69867 1381.99 -20.4597 1422.76" stroke="#FFEE59" stroke-width="33.856" stroke-linecap="round" stroke-linejoin="round"/>
<path d="M-51.5195 141.459C176.272 166.262 140.136 -38.1991 140.136 -94.0614C140.136 -149.924 143.079 -279.386 149.924 -338.413C156.768 -397.44 97.5931 -433.946 50.857 -318.688C4.12099 -203.431 6.69867 -90.0135 -20.4597 -49.2391" stroke="#FFEE59" stroke-width="33.856" stroke-linecap="round" stroke-linejoin="round"/>
<path d="M1331.9 1696.66C1422.54 1768.53 1546.26 1836.84 1680.44 1727.61C1756.25 1665.9 1718.46 1650.45 1689.2 1382.65C1675.24 1254.88 1689.2 1150.95 1689.2 1093.77C1689.2 990.583 1600.58 955.622 1552.15 993.158C1503.72 1030.69 1427.91 1102.97 1384.27 1358.66C1374.38 1421.76 1359.36 1502.27 1404.66 1516.23C1449.77 1530.14 1508.06 1517.93 1523.15 1382.65" stroke="#FF63DD" stroke-width="33.856" stroke-linecap="round" stroke-linejoin="round"/>
<path d="M1420.48 1613.46C1687.72 1747.63 1599.03 1482.75 1612.14 1377.94C1625.24 1273.13 1630.02 1200.93 1636.86 1141.9C1643.71 1082.88 1598.52 1059.36 1543.98 1111.43C1489.44 1163.51 1478.7 1381.99 1451.54 1422.76" stroke="#FFEE59" stroke-width="33.856" stroke-linecap="round" stroke-linejoin="round"/>
<path d="M1331.9 224.657C1422.54 296.534 1546.26 364.835 1680.44 255.613C1756.25 193.895 1718.46 178.448 1689.2 -89.3506C1675.24 -217.12 1689.2 -321.05 1689.2 -378.23C1689.2 -481.418 1600.58 -516.378 1552.15 -478.842C1503.72 -441.306 1427.91 -369.03 1384.27 -113.344C1374.38 -50.2442 1359.36 30.2668 1404.66 44.2334C1449.77 58.1438 1508.06 45.9262 1523.15 -89.3506" stroke="#FF63DD" stroke-width="33.856" stroke-linecap="round" stroke-linejoin="round"/>
<path d="M1420.48 141.459C1687.72 275.632 1599.03 10.7455 1612.13 -94.0609C1625.24 -198.867 1630.02 -271.069 1636.86 -330.096C1643.71 -389.123 1598.52 -412.639 1543.98 -360.567C1489.44 -308.495 1478.7 -90.013 1451.54 -49.2386" stroke="#40FF92" stroke-width="33.856" stroke-linecap="round" stroke-linejoin="round"/>
<path d="M-2.42884 474.352C-46.3905 465.943 -102.745 431.844 -102.745 371.165C-102.745 330.129 -37.8385 365.684 30.1026 371.165C117.687 378.23 224.48 337.088 271.216 261.133" stroke="#AB40FF" stroke-width="33.856" stroke-linecap="round" stroke-linejoin="round"/>
<path d="M1469.57 474.352C1425.61 465.943 1369.25 431.844 1369.25 371.165C1369.26 330.129 1434.16 365.684 1502.1 371.165C1589.69 378.23 1743.22 318.909 1743.22 261.133" stroke="#AB40FF" stroke-width="33.856" stroke-linecap="round" stroke-linejoin="round"/>
<circle cx="916.394" cy="872.234" r="19.7984" fill="#40BAFF"/>
<circle cx="1222.57" cy="997.206" r="19.7984" fill="#AB40FF"/>
<circle cx="1337.83" cy="1180.76" r="19.7984" fill="#FF596D"/>
<circle cx="696.771" cy="1262.17" r="19.7984" fill="#40FF92"/>
<circle cx="1065.21" cy="1459.27" r="19.7984" fill="#AB40FF"/>
<circle cx="1065.21" cy="-12.7328" r="19.7984" fill="#AB40FF"/>
<circle cx="415.619" cy="1430.27" r="19.7984" fill="#FF596D"/>
<circle cx="601.533" cy="217.046" r="19.7984" fill="#40BAFF"/>
<circle cx="73.232" cy="1281.89" r="19.7984" fill="#FF63DD"/>
<circle cx="383.088" cy="560.022" r="19.7984" fill="#40BAFF"/>
<circle cx="165.674" cy="916.394" r="19.7984" fill="#AB40FF"/>
<circle cx="657.174" cy="646.723" r="19.7984" fill="#FF63DD"/>
<circle cx="1273.06" cy="328.477" r="19.7984" fill="#40BAFF"/>
<circle cx="1303.38" cy="522.634" r="19.7984" fill="#AB40FF"/>
<circle cx="835.728" cy="227.645" r="19.7984" fill="#FF63DD"/>
</g>
</g>
<defs>
<clipPath id="clip0_6594_21018">
<rect width="1440" height="1472" rx="58.88" fill="white"/>
</clipPath>
</defs>
</svg>
