<svg width="1440" height="1472" viewBox="0 0 1440 1472" fill="none" xmlns="http://www.w3.org/2000/svg">
<g opacity="0.2">
<g clip-path="url(#clip0_6594_21261)">
<path d="M1128.66 802.065L1085.62 774.949L1168.37 648.866L1319.27 751.388L1249.44 860.425" stroke="#AB40FF" stroke-width="38.163" stroke-linecap="round" stroke-linejoin="round"/>
<path d="M827.444 455.63L865.858 336.347L741.577 274.357L666.914 393.102L766.792 451.542L795.414 374.535L751.799 358.179" stroke="#40BAFF" stroke-width="38.163" stroke-linecap="round" stroke-linejoin="round"/>
<path d="M1136.83 307.013L1278.31 205.771L1149.84 158.549L1226.25 108.2" stroke="#AB40FF" stroke-width="38.163" stroke-linecap="round" stroke-linejoin="round"/>
<path d="M872.295 763.392C923.059 775.745 1026.69 781.979 1035.11 708.091C1045.65 615.731 953.625 611.334 1038.35 537.776" stroke="#40FF92" stroke-width="38.163" stroke-linecap="round" stroke-linejoin="round"/>
<path d="M518.182 66.1112C533.517 80.8532 573.091 96.6302 608.702 41.8022C629.475 49.3613 673.828 51.5846 685.061 0.00532901C708.159 5.52622 752.231 1.78508 743.727 -57.3466" stroke="#40BAFF" stroke-width="38.163" stroke-linecap="round" stroke-linejoin="round"/>
<path d="M518.182 1538.12C533.517 1552.86 573.091 1568.64 608.702 1513.81C629.475 1521.37 673.828 1523.59 685.061 1472.01C708.159 1477.53 752.231 1473.79 743.727 1414.66" stroke="#40BAFF" stroke-width="38.163" stroke-linecap="round" stroke-linejoin="round"/>
<path d="M1281.05 1231.68C1275.02 1263.63 1283.39 1318.71 1365.15 1283.38C1364.28 1312.34 1382.92 1364.3 1464.4 1340.49C1460.85 1378.32 1477.95 1444.81 1574.79 1408.11" stroke="#AB40FF" stroke-width="38.163" stroke-linecap="round" stroke-linejoin="round"/>
<path d="M-198.725 1211.69C-202.797 1243.95 -191.08 1298.42 -111.634 1258.16C-110.731 1287.12 -88.9568 1337.85 -9.08062 1309.11C-10.3179 1347.09 10.8131 1412.41 105.236 1369.86" stroke="#AB40FF" stroke-width="38.163" stroke-linecap="round" stroke-linejoin="round"/>
<path d="M768.606 188.625L896.966 145.925L820.166 87.4931L947.553 -32.7115" stroke="#FF9950" stroke-width="38.163" stroke-linecap="round" stroke-linejoin="round"/>
<path d="M1126.85 1471.19C1094.08 1481.43 1025.09 1484.13 1011.25 1413C993.943 1324.08 880.174 1417.34 840.948 1328.73" stroke="#FFEE59" stroke-width="38.163" stroke-linecap="round" stroke-linejoin="round"/>
<path d="M1126.85 -0.807282C1094.08 9.43359 1025.09 12.1322 1011.25 -59.0005C993.943 -147.916 880.174 -54.657 840.948 -143.262" stroke="#FFEE59" stroke-width="38.163" stroke-linecap="round" stroke-linejoin="round"/>
<path d="M78.382 1258.42C49.3247 1240.57 15.6549 1186.55 113.434 1113.2C211.213 1039.84 185.546 980.994 160.489 960.739" stroke="#FFEE59" stroke-width="38.163" stroke-linecap="round" stroke-linejoin="round"/>
<path d="M923.086 645.155L840.11 557.668L999.052 445.688" stroke="#FF596D" stroke-width="38.163" stroke-linecap="round" stroke-linejoin="round"/>
<path d="M1027.72 880.837L1114.76 945.119L1206.62 797.488" stroke="#FF596D" stroke-width="38.163" stroke-linecap="round" stroke-linejoin="round"/>
<path d="M1000.07 1021.68L1131.86 998.301" stroke="#40FF92" stroke-width="38.163" stroke-linecap="round" stroke-linejoin="round"/>
<path d="M1187.3 1028.24L1156.78 1115.42L1251.95 1159.35L1336.19 1026.36" stroke="#40BAFF" stroke-width="38.163" stroke-linecap="round" stroke-linejoin="round"/>
<path d="M1270.39 1004.98L1335.31 872.455L1382.2 910.002" stroke="#FFEE59" stroke-width="38.163" stroke-linecap="round" stroke-linejoin="round"/>
<path d="M937.318 76.3136L1026.28 145.241L1065.49 65.3227" stroke="#40FF92" stroke-width="38.163" stroke-linecap="round" stroke-linejoin="round"/>
<path d="M920.649 421.917L963.468 291.674" stroke="#40FF92" stroke-width="38.163" stroke-linecap="round" stroke-linejoin="round"/>
<path d="M530.825 1360.95L521.685 1309.42" stroke="#40FF92" stroke-width="38.163" stroke-linecap="round" stroke-linejoin="round"/>
<path d="M1106.73 1361.19L1219.69 1341.15" stroke="#AB40FF" stroke-width="38.163" stroke-linecap="round" stroke-linejoin="round"/>
<path d="M898.489 1297.04L910.199 1158.52" stroke="#40FF92" stroke-width="38.163" stroke-linecap="round" stroke-linejoin="round"/>
<path d="M919.551 1054.09L971.067 1145.74" stroke="#FF63DD" stroke-width="38.163" stroke-linecap="round" stroke-linejoin="round"/>
<path d="M238.041 865.481L242.48 966.393" stroke="#FF63DD" stroke-width="38.163" stroke-linecap="round" stroke-linejoin="round"/>
<path d="M491.821 986.057L566.739 863.917" stroke="#AB40FF" stroke-width="38.163" stroke-linecap="round" stroke-linejoin="round"/>
<path d="M658.72 902.258L894.141 924.375" stroke="#40FF92" stroke-width="38.163" stroke-linecap="round" stroke-linejoin="round"/>
<path d="M849.873 993.131L959.437 988.515L961.55 841.985L858.18 829.66" stroke="#AB40FF" stroke-width="38.163" stroke-linecap="round" stroke-linejoin="round"/>
<path d="M600.534 745.2L586.356 792.029L787.246 795.22L826.976 644.68" stroke="#FF63DD" stroke-width="38.163" stroke-linecap="round" stroke-linejoin="round"/>
<path d="M521.149 678.391L502.694 510.98" stroke="#AB40FF" stroke-width="38.163" stroke-linecap="round" stroke-linejoin="round"/>
<path d="M487.941 396.083L618.297 433.772" stroke="#40FF92" stroke-width="38.163" stroke-linecap="round" stroke-linejoin="round"/>
<path d="M316.616 665.24L305.366 601.824" stroke="#40FF92" stroke-width="38.163" stroke-linecap="round" stroke-linejoin="round"/>
<path d="M519.453 769.656L372.045 730.904L399.864 645.737" stroke="#FF9950" stroke-width="38.163" stroke-linecap="round" stroke-linejoin="round"/>
<path d="M399.87 200.169L462.266 122.667" stroke="#FF596D" stroke-width="38.163" stroke-linecap="round" stroke-linejoin="round"/>
<path d="M641.068 255.38L669.942 144.474" stroke="#AB40FF" stroke-width="38.163" stroke-linecap="round" stroke-linejoin="round"/>
<path d="M244.076 685.86L148.281 670.147L146.389 575.942L226.059 584.294L230.546 451.141" stroke="#AB40FF" stroke-width="38.163" stroke-linecap="round" stroke-linejoin="round"/>
<path d="M59.6773 453.633L147.202 477.457L162.386 410.373" stroke="#FFEE59" stroke-width="38.163" stroke-linecap="round" stroke-linejoin="round"/>
<path d="M283.625 346.177L148.563 325.165" stroke="#40FF92" stroke-width="38.163" stroke-linecap="round" stroke-linejoin="round"/>
<path d="M492.845 1138.21L502.591 1060.63L271.119 1072.34L337.333 928.858" stroke="#FF596D" stroke-width="38.163" stroke-linecap="round" stroke-linejoin="round"/>
<path d="M304.658 1169.68C315.509 1200.12 319.282 1264.8 247.568 1279.97L296.613 1398.01L406.601 1378.5" stroke="#40FF92" stroke-width="38.163" stroke-linecap="round" stroke-linejoin="round"/>
<path d="M1350.11 117.46L1404.52 12.244L1316.62 -39.6196" stroke="#FF9950" stroke-width="38.163" stroke-linecap="round" stroke-linejoin="round"/>
<path d="M1350.11 1589.46L1404.52 1484.25L1316.62 1432.38" stroke="#FF9950" stroke-width="38.163" stroke-linecap="round" stroke-linejoin="round"/>
<path d="M768.606 1660.62L896.966 1617.92L820.167 1559.49L947.554 1439.28" stroke="#FF9950" stroke-width="38.163" stroke-linecap="round" stroke-linejoin="round"/>
<path d="M89.4371 1012.65L-51.3166 1048.86L-27.6449 954.723" stroke="#FF63DD" stroke-width="38.163" stroke-linecap="round" stroke-linejoin="round"/>
<path d="M1561.44 1012.65L1420.68 1048.86L1444.36 954.723" stroke="#FF63DD" stroke-width="38.163" stroke-linecap="round" stroke-linejoin="round"/>
<path d="M1346.9 1180.27C1347.06 1169.23 1356.27 1148.16 1391.8 1152.18C1436.22 1157.2 1441.8 1131.44 1442.73 1129.9" stroke="#FFEE59" stroke-width="38.163" stroke-linecap="round" stroke-linejoin="round"/>
<path d="M125.306 778.252L127.125 850.765L77.6299 855.634" stroke="#FF596D" stroke-width="38.163" stroke-linecap="round" stroke-linejoin="round"/>
<path d="M366.306 288.527C341.473 279.134 295.992 239.574 312.731 156.475" stroke="#AB40FF" stroke-width="38.163" stroke-linecap="round" stroke-linejoin="round"/>
<path d="M574.589 329.922C572.747 301.291 556.109 237.842 504.296 213.101" stroke="#FF9950" stroke-width="38.163" stroke-linecap="round" stroke-linejoin="round"/>
<path d="M173.759 1492.49C186.609 1449.99 204.529 1351.77 173.412 1298.9" stroke="#AB40FF" stroke-width="38.163" stroke-linecap="round" stroke-linejoin="round"/>
<path d="M173.759 20.4856C186.609 -22.0138 204.529 -120.23 173.412 -173.098" stroke="#AB40FF" stroke-width="38.163" stroke-linecap="round" stroke-linejoin="round"/>
<path d="M204.608 802.976C272.246 753.443 413.511 778.814 428.84 915.858" stroke="#40FF92" stroke-width="38.163" stroke-linecap="round" stroke-linejoin="round"/>
<path d="M597.104 1378.7C597.55 1412.68 586.154 1478.45 537.007 1469.73" stroke="#FF63DD" stroke-width="38.163" stroke-linecap="round" stroke-linejoin="round"/>
<path d="M597.104 -93.3038C597.55 -59.3263 586.154 6.44916 537.007 -2.26927" stroke="#FF63DD" stroke-width="38.163" stroke-linecap="round" stroke-linejoin="round"/>
<path d="M1325.02 657.448C1357.34 640.592 1413.91 579.586 1381.58 470.413" stroke="#FF9950" stroke-width="38.163" stroke-linecap="round" stroke-linejoin="round"/>
<path d="M1301.49 540.34C1260.68 498.519 1210.23 399.233 1334.86 336.651" stroke="#40FF92" stroke-width="38.163" stroke-linecap="round" stroke-linejoin="round"/>
<path d="M1030.88 322.447C1036.56 287.064 1026.69 217.262 941.806 221.116" stroke="#FF596D" stroke-width="38.163" stroke-linecap="round" stroke-linejoin="round"/>
<path d="M390.377 584.787C385.268 582.178 291.11 405.303 475.905 312.91" stroke="#FFEE59" stroke-width="38.163" stroke-linecap="round" stroke-linejoin="round"/>
<path d="M379.232 1174.74C465.18 1272.26 720.932 1234.21 643.793 1024.07" stroke="#AB40FF" stroke-width="38.163" stroke-linecap="round" stroke-linejoin="round"/>
<path d="M640.166 1303.22C683.077 1308.9 778.165 1296.42 815.226 1201.13" stroke="#40BAFF" stroke-width="38.163" stroke-linecap="round" stroke-linejoin="round"/>
<path d="M1036.95 1281.41C1080.14 1264.03 1149.34 1208.1 1080.61 1123.43" stroke="#40FF92" stroke-width="38.163" stroke-linecap="round" stroke-linejoin="round"/>
<path d="M575.99 1019.23C580.028 993.984 599.686 946.548 646.008 958.772" stroke="#40FF92" stroke-width="38.163" stroke-linecap="round" stroke-linejoin="round"/>
<path d="M-79.4052 331.942C-83.0775 299.717 -72.6983 237.233 -1.80274 245.098C46.6773 250.477 55.757 312.224 40.2272 340.871" stroke="#FFEE59" stroke-width="38.163" stroke-linecap="round" stroke-linejoin="round"/>
<path d="M1392.59 331.942C1388.91 299.717 1399.29 237.233 1470.19 245.098C1518.67 250.477 1527.75 312.224 1512.22 340.871" stroke="#FFEE59" stroke-width="38.163" stroke-linecap="round" stroke-linejoin="round"/>
<circle cx="773.08" cy="1090.65" r="49.3505" transform="rotate(-100.059 773.08 1090.65)" stroke="#FF9950" stroke-width="38.163"/>
<circle cx="658.766" cy="583.804" r="62.4331" transform="rotate(-100.059 658.766 583.804)" stroke="#FFEE59" stroke-width="38.163"/>
<circle cx="152.911" cy="169.265" r="63.4395" transform="rotate(-100.059 152.911 169.265)" stroke="#FF9950" stroke-width="38.163"/>
<circle cx="1136.98" cy="445.957" r="56.395" transform="rotate(-100.059 1136.98 445.957)" stroke="#FFEE59" stroke-width="38.163"/>
<circle cx="1457.87" cy="757.308" r="49.8537" transform="rotate(-100.059 1457.87 757.308)" stroke="#40BAFF" stroke-width="38.163"/>
<circle cx="-14.1264" cy="757.308" r="49.8537" transform="rotate(-100.059 -14.1264 757.308)" stroke="#40BAFF" stroke-width="38.163"/>
<circle cx="366.138" cy="32.2131" r="49.8537" transform="rotate(-100.059 366.138 32.2131)" stroke="#FF9950" stroke-width="38.163"/>
<path d="M357.431 1455.13C384.541 1450.32 410.417 1468.4 415.226 1495.51C420.035 1522.62 401.956 1548.49 374.846 1553.3C347.736 1558.11 321.86 1540.03 317.051 1512.92C312.242 1485.81 330.32 1459.94 357.431 1455.13Z" stroke="#FF9950" stroke-width="38.163"/>
<circle cx="49.7483" cy="593.57" r="21.1259" fill="#FF63DD"/>
<circle cx="36.1185" cy="66.1037" r="21.1259" fill="#FFEE59"/>
<circle cx="1176.92" cy="578.578" r="21.1259" fill="#40FF92"/>
<circle cx="183.318" cy="1182.37" r="21.1259" fill="#FF63DD"/>
<circle cx="409.571" cy="1296.86" r="21.1259" fill="#1D1C2B"/>
<circle cx="1448.15" cy="132.889" r="21.1259" fill="#40FF92"/>
<circle cx="1216.44" cy="1423.62" r="21.1259" fill="#40FF92"/>
<circle cx="721.689" cy="708.059" r="21.1259" fill="#40BAFF"/>
<circle cx="445.008" cy="449.096" r="21.1259" fill="#FF63DD"/>
<circle cx="732.592" cy="83.8222" r="21.1259" fill="#AB40FF"/>
<circle cx="1415.44" cy="397.304" r="21.1259" fill="#40FF92"/>
<circle cx="1071.97" cy="213.304" r="21.1259" fill="#40FF92"/>
<circle cx="1176.92" cy="1247.79" r="21.1259" fill="#FF63DD"/>
<circle cx="699.881" cy="1221.9" r="21.1259" fill="#40FF92"/>
<circle cx="1282.78" cy="41.5866" r="21.1259" fill="#FF63DD"/>
</g>
</g>
<defs>
<clipPath id="clip0_6594_21261">
<rect width="1440" height="1472" rx="58.88" fill="white"/>
</clipPath>
</defs>
</svg>
