<svg width="768" height="115" viewBox="0 0 768 115" fill="none" xmlns="http://www.w3.org/2000/svg">
<rect width="767.723" height="114.497" fill="black"/>
<path d="M44.1423 89.3936V41.0875H24V25.1037H83.1262V41.0677H62.9839V89.3739H44.1423V89.3936Z" fill="white"/>
<path d="M90.1262 57.1599C90.1262 47.8377 93.3387 39.9739 99.7441 33.5883C106.149 27.2026 114.427 24.0098 124.538 24.0098C134.648 24.0098 142.946 27.2026 149.39 33.5883C155.835 39.9739 159.067 47.818 159.067 57.1599C159.067 66.5019 155.855 74.543 149.45 80.909C143.024 87.2946 134.727 90.4874 124.557 90.4874C114.388 90.4874 106.169 87.2946 99.7638 80.909C93.3585 74.5233 90.1459 66.6004 90.1459 57.1599H90.1262ZM109.756 57.1599C109.756 61.9294 111.155 65.8318 113.915 68.8669C116.694 71.9021 120.221 73.4393 124.538 73.4393C128.854 73.4393 132.48 71.9218 135.259 68.8669C138.038 65.8318 139.418 61.9294 139.418 57.1599C139.418 52.3904 138.018 48.6063 135.259 45.6106C132.48 42.5952 128.913 41.0973 124.538 41.0973C120.438 41.0973 116.95 42.6149 114.072 45.6697C111.195 48.7049 109.756 52.5481 109.756 57.1796V57.1599Z" fill="white"/>
<path d="M166.067 89.3936V25.1037H184.909V55.258L203.258 25.1037H224.977L205.13 53.0704L228.248 89.3739H206.234L194.034 67.8519L184.909 79.8545V89.3739H166.067V89.3936Z" fill="white"/>
<path d="M235.268 89.3936V25.1037H286.353V41.0677H254.11V48.9118H285.052V64.6788H254.11V73.4098H287.536V89.3739H235.248L235.268 89.3936Z" fill="white"/>
<path d="M294.536 89.3936V25.1037H310.894L334.209 57.5443V25.1037H353.051V89.3936H336.693L313.377 57.4457V89.3936H294.536Z" fill="white"/>
<path d="M383.051 82.7715L389.2 68.0885C391.388 69.3498 393.201 70.2958 394.659 70.9659C396.118 71.636 398.266 72.2864 401.104 72.9565C403.942 73.6266 406.958 73.9419 410.131 73.9419C410.781 73.9419 411.491 73.8828 412.22 73.7843C412.949 73.6857 413.777 73.5084 414.703 73.2324C415.63 72.9762 416.398 72.5623 416.989 71.9908C417.581 71.4192 417.876 70.7491 417.876 69.9608C417.876 69.5666 417.817 69.1921 417.679 68.8177C417.541 68.4629 417.325 68.1476 416.989 67.8717C416.654 67.6154 416.339 67.3789 416.043 67.1818C415.748 66.9848 415.295 66.8074 414.703 66.63C414.112 66.4723 413.639 66.3344 413.304 66.2358C412.969 66.1373 412.417 65.9993 411.668 65.8417C410.899 65.684 410.387 65.5657 410.131 65.4869C407.293 64.8365 404.79 64.1664 402.642 63.4963C400.493 62.8459 398.246 61.9196 395.901 60.7174C393.556 59.5349 391.605 58.1947 390.048 56.6968C388.491 55.1989 387.229 53.3266 386.224 51.0404C385.239 48.7542 384.746 46.2315 384.746 43.4525C384.746 37.1063 387.19 32.2777 392.078 28.9666C396.965 25.6555 402.996 24 410.131 24C419.315 24 427.632 26.1877 435.023 30.5433L428.677 45.1278C426.824 43.8664 424.065 42.7824 420.399 41.8561C416.733 40.9298 413.304 40.4765 410.131 40.4765C406.288 40.4765 404.376 41.4619 404.376 43.4525C404.376 45.246 406.288 46.5862 410.131 47.5125C412.043 47.9067 413.58 48.2615 414.743 48.5571C415.905 48.8527 417.561 49.3257 419.709 49.9958C421.858 50.6462 423.631 51.336 425.011 52.0258C426.391 52.7156 427.967 53.6617 429.721 54.8442C431.475 56.0267 432.855 57.3078 433.84 58.6677C434.826 60.0276 435.693 61.6831 436.422 63.6343C437.152 65.5854 437.506 67.6943 437.506 69.9411C437.506 74.5726 436.127 78.4947 433.348 81.6875C430.569 84.9 427.179 87.1665 423.178 88.487C419.177 89.8075 414.822 90.4776 410.131 90.4776C405.972 90.4776 402.09 90.1031 398.522 89.3345C394.955 88.5658 392.294 87.7775 390.54 86.9497C388.786 86.1219 387.131 85.2351 385.574 84.2693C384.017 83.3036 383.169 82.7912 383.051 82.732V82.7715Z" fill="white"/>
<path d="M462.007 89.3147V41.0086H441.865V25.0248H500.991V40.9889H480.848V89.295H462.007V89.3147Z" fill="white"/>
<path d="M529.804 70.8082C531.617 72.5623 533.982 73.4294 536.899 73.4294C539.816 73.4294 542.181 72.5623 543.994 70.8082C545.807 69.0541 546.714 66.354 546.714 62.7276V25.0248H565.556V63.8116C565.556 72.3455 562.895 78.9282 557.574 83.5597C552.252 88.1913 545.354 90.4972 536.879 90.4972C528.405 90.4972 521.526 88.1913 516.205 83.5597C510.884 78.9282 508.223 72.3455 508.223 63.8116V25.0248H527.064V62.7276C527.064 66.3737 527.971 69.0541 529.784 70.8082H529.804Z" fill="white"/>
<path d="M576.276 89.3147V25.0248H603.06C613.565 25.0248 622.039 28.1191 628.464 34.3076C634.87 40.4961 638.082 48.1037 638.082 57.1697C638.082 66.2358 634.87 73.8433 628.464 80.0319C622.039 86.2204 613.584 89.3147 603.06 89.3147H576.276ZM595.137 73.3506H602.37C607.14 73.3506 610.943 71.833 613.821 68.7782C616.698 65.743 618.137 61.8604 618.137 57.1697C618.137 52.4791 616.698 48.5964 613.821 45.5613C610.943 42.5261 607.12 40.9889 602.37 40.9889H595.137V73.3309V73.3506Z" fill="white"/>
<path d="M647.012 89.3147V25.0248H665.854V89.3147H647.012Z" fill="white"/>
<path d="M674.781 57.1698C674.781 47.8475 677.994 39.9837 684.399 33.5981C690.805 27.2125 699.082 24.0197 709.193 24.0197C719.304 24.0197 727.601 27.2125 734.046 33.5981C740.49 39.9837 743.723 47.8278 743.723 57.1698C743.723 66.5117 740.51 74.5529 734.105 80.9188C727.699 87.3044 719.382 90.4972 709.213 90.4972C699.043 90.4972 690.824 87.3044 684.419 80.9188C678.014 74.5332 674.801 66.6102 674.801 57.1698H674.781ZM694.431 57.1698C694.431 61.9393 695.83 65.8416 698.59 68.8767C701.369 71.9119 704.896 73.4492 709.213 73.4492C713.529 73.4492 717.155 71.9316 719.934 68.8767C722.713 65.8416 724.093 61.9393 724.093 57.1698C724.093 52.4002 722.713 48.6162 719.934 45.6204C717.155 42.605 713.588 41.1071 709.213 41.1071C705.113 41.1071 701.625 42.6247 698.747 45.6796C695.87 48.7147 694.431 52.5579 694.431 57.1895V57.1698Z" fill="white"/>
</svg>
