<svg width="1024" height="1024" viewBox="0 0 1024 1024" fill="none" xmlns="http://www.w3.org/2000/svg">
<g clip-path="url(#clip0_6736_31608)">
<rect width="1024" height="1024" fill="black"/>
<g opacity="0.8">
<g clip-path="url(#clip1_6736_31608)">
<path d="M979.149 141.381C1067.41 -7.51176 1221.4 -143.413 1477.16 -143.413" stroke="#AB40FF" stroke-width="58.589" stroke-linecap="round" stroke-linejoin="round"/>
<path d="M826.863 -203.513C845.085 -74.3915 847.557 182.86 889.355 238.562C953.293 323.771 1019.49 236.591 1187.52 116.926C1350.81 0.639583 1402.65 -2.79934 1605.29 -37.8255" stroke="#FF596D" stroke-width="58.589" stroke-linecap="round" stroke-linejoin="round"/>
<path d="M344.598 251.186C305.568 182.256 242.83 0.464352 304.113 -175.265C380.717 -394.927 542.838 -562.795 728.656 -459.299C877.804 -376.227 910.209 -193.009 918.318 -173.224" stroke="#FFEE59" stroke-width="58.589" stroke-linecap="round" stroke-linejoin="round"/>
<path d="M596.933 53.3536C632.582 258.431 681.392 702.656 349.981 999.644C18.5702 1296.63 -9.91818 1508.9 17.264 1577.91" stroke="#AB40FF" stroke-width="58.589" stroke-linecap="round" stroke-linejoin="round"/>
<path d="M-36.2775 1230.25C-60.5028 1150.06 -21.0838 1064.93 69.5568 1035.76" stroke="#40FF92" stroke-width="58.589" stroke-linecap="round" stroke-linejoin="round"/>
<path d="M182.945 990.877C276.287 902.058 465.805 673.495 477.145 469.795C491.319 215.17 375.222 -247.408 577.606 -247.408C748.104 -247.408 735.508 294.608 783.639 391.785C842.235 510.092 929.586 485.473 1101.55 341.347C1322.01 156.571 1406.34 128.134 1578.94 92.7085" stroke="#40BAFF" stroke-width="58.589" stroke-linecap="round" stroke-linejoin="round"/>
<path d="M717.536 538.894C750.232 599.909 882.597 684.192 995.181 597.952C1135.91 490.152 1355.52 172.223 1815.84 286.296" stroke="#FF596D" stroke-width="58.589" stroke-linecap="round" stroke-linejoin="round"/>
<path d="M1651.9 1028.75C1746.03 1121.22 1871.61 1328.7 1665.79 1405.38C1463.24 1480.83 1340.21 1127.97 978.642 1487.91" stroke="#40BAFF" stroke-width="58.589" stroke-linecap="round" stroke-linejoin="round"/>
<path d="M1447.7 -253.18C1363.23 -224.754 1186.64 -237.412 1118.66 -376.772C1033.68 -550.972 1147.56 -750.905 1381.87 -727.393C1569.31 -708.583 1574.17 -566.613 1680.71 -448.488C1759.66 -360.957 1809.58 -265.686 2008.02 -293.834" stroke="#40BAFF" stroke-width="58.589" stroke-linecap="round" stroke-linejoin="round"/>
<path d="M-894.781 802.711C-697.973 884.009 -523.244 643.674 -419.953 513.398C-316.663 383.122 -75.21 14.3727 197.771 395.577" stroke="#FF9950" stroke-width="58.589" stroke-linecap="round" stroke-linejoin="round"/>
<path d="M-734.326 930.677C-483.031 842.666 -343.704 691.008 -303.29 575.313C-252.09 428.743 -130.258 356.233 -39.5358 382.232C156.785 438.494 169.245 696.113 -51.7311 795.21C-272.707 894.308 -259.883 748.414 -687.201 1166.31" stroke="#FF63DD" stroke-width="58.589" stroke-linecap="round" stroke-linejoin="round"/>
<path d="M337.576 439.127C356.24 534.827 312.409 767.457 -12.2309 932.382C-418.03 1138.54 -691.275 1273.3 -691.275 1479.38" stroke="#40FF92" stroke-width="58.589" stroke-linecap="round" stroke-linejoin="round"/>
<path d="M-166.521 543.48C-144.742 498.901 -73.1607 488.402 -47.5607 533.163C-15.5607 589.114 -7.8218 701.797 -228.167 721.539" stroke="#AB40FF" stroke-width="58.589" stroke-linecap="round" stroke-linejoin="round"/>
<path d="M135.692 1556.39C203.376 1355.32 333.979 1030.03 677.167 918.108C1020.35 806.185 1350.24 985.806 1472.28 1089.61" stroke="#FF63DD" stroke-width="58.589" stroke-linecap="round" stroke-linejoin="round"/>
<path d="M754.855 1092.56C764.432 1072.06 830.24 1023.14 878.195 1014.43" stroke="#40BAFF" stroke-width="58.589" stroke-linecap="round" stroke-linejoin="round"/>
<path d="M634.897 803.463C708.935 760.978 916.702 700.281 1155.46 797.379C1394.22 894.477 1494.34 782.467 1519.43 701.925C1502.06 795.844 1497.05 973.373 1615.9 932.142" stroke="#40FF92" stroke-width="58.589" stroke-linecap="round" stroke-linejoin="round"/>
<path d="M201.697 -405.917C74.203 -29.0371 92.5435 77.0607 201.697 237.671" stroke="#FF596D" stroke-width="58.589" stroke-linecap="round" stroke-linejoin="round"/>
<path d="M-707.905 -62.3572C-551.044 62.0289 -299.238 93.6162 -122.452 -62.3572C45.6534 -210.672 -20.3325 -419.028 -66.2834 -633.014C-96.6426 -774.392 -80.848 -1007.11 -89.5777 -1105.68C-107.423 -1307.17 -242.941 -1344.75 -326.749 -1279.79C-410.557 -1214.83 -541.745 -1089.76 -617.273 -647.28C-634.383 -538.084 -660.385 -398.757 -581.993 -374.587C-503.917 -350.515 -366.871 -384.902 -340.76 -619.004" stroke="#FF63DD" stroke-width="58.589" stroke-linecap="round" stroke-linejoin="round"/>
<path d="M-469.656 369.751C-545.734 355.198 -643.257 296.189 -643.257 191.182C-643.257 120.167 -530.934 181.697 -413.359 191.182C-261.792 203.409 -76.9823 132.21 3.89622 0.767531" stroke="#AB40FF" stroke-width="58.589" stroke-linecap="round" stroke-linejoin="round"/>
<circle cx="197.495" cy="518.006" r="34.2618" fill="#40BAFF"/>
<circle cx="671.811" cy="668.045" r="34.2618" fill="#FF63DD"/>
</g>
</g>
<g clip-path="url(#clip2_6736_31608)">
<path d="M779.87 668.621V358.915L511.669 204.084L243.469 358.915V668.621L511.669 823.497L779.87 668.621Z" fill="white"/>
<path d="M551.545 503.083L711.972 460.124L658.305 367.154L540.882 484.577L522.376 473.915L565.336 313.488H458.003L501.007 473.915L482.501 484.577L365.034 367.154L311.367 460.124L471.794 503.083V524.453L311.367 567.457L365.034 660.426L482.501 543.003L501.007 553.665L458.003 714.092H565.336L522.376 553.665L540.882 543.003L658.305 660.426L711.972 567.457L551.545 524.453V503.083Z" fill="black"/>
</g>
</g>
<defs>
<clipPath id="clip0_6736_31608">
<rect width="1024" height="1024" fill="white"/>
</clipPath>
<clipPath id="clip1_6736_31608">
<rect x="-465.453" y="-451.133" width="2491.97" height="2547.35" rx="101.894" fill="white"/>
</clipPath>
<clipPath id="clip2_6736_31608">
<rect width="536.401" height="619.413" fill="white" transform="translate(243.469 204.084)"/>
</clipPath>
</defs>
</svg>
