<svg width="26" height="26" viewBox="0 0 26 26" fill="none" xmlns="http://www.w3.org/2000/svg">
<path d="M12.2127 19.0323H13.8877V13.5996H19.334V11.9246H13.8877V6.36561H12.2127V11.9246H6.66732V13.5996H12.2127V19.0323ZM13.0087 25.3656C11.2551 25.3656 9.61076 25.0332 8.07565 24.3683C6.54032 23.7034 5.19876 22.7974 4.05098 21.6503C2.90343 20.5029 1.99698 19.1615 1.33165 17.6259C0.66654 16.0902 0.333984 14.4448 0.333984 12.6899C0.333984 10.9408 0.666429 9.29672 1.33132 7.75761C1.99621 6.21827 2.90221 4.87849 4.04932 3.73827C5.19665 2.59805 6.5381 1.69527 8.07365 1.02994C9.60943 0.364828 11.2548 0.0322723 13.0097 0.0322723C14.7588 0.0322723 16.4029 0.364716 17.942 1.02961C19.4813 1.69449 20.8211 2.59683 21.9613 3.73661C23.1015 4.87638 24.0043 6.21672 24.6697 7.75761C25.3348 9.2985 25.6673 10.9429 25.6673 12.6909C25.6673 14.4445 25.3349 16.0888 24.67 17.6239C24.0051 19.1593 23.1028 20.4994 21.963 21.6443C20.8232 22.7894 19.4829 23.6958 17.942 24.3636C16.4011 25.0316 14.7567 25.3656 13.0087 25.3656Z" fill="#37393F"/>
</svg>
