<svg width="1440" height="1472" viewBox="0 0 1440 1472" fill="none" xmlns="http://www.w3.org/2000/svg">
<g opacity="0.2">
<g clip-path="url(#clip0_6594_21164)">
<path d="M332.743 1130.73L245.905 1077.69L287.453 1009.67L207.59 960.89L258.726 877.165" stroke="#FF9950" stroke-width="38.272" stroke-linecap="round" stroke-linejoin="round"/>
<path d="M1220.58 1227.8L1220.58 1329.55L1338.37 1329.55L1338.37 1423.13L1483.33 1423.13" stroke="#FF63DD" stroke-width="38.272" stroke-linecap="round" stroke-linejoin="round"/>
<path d="M-166.483 1227.8L-166.483 1329.55L-86.7718 1329.55L-86.7718 1423.13L11.3344 1423.13" stroke="#FF63DD" stroke-width="38.272" stroke-linecap="round" stroke-linejoin="round"/>
<path d="M865.094 373.888L799.738 318.32L757.786 457.719L686.393 304.973" stroke="#AB40FF" stroke-width="38.272" stroke-linecap="round" stroke-linejoin="round"/>
<path d="M669.442 1282.57L590.154 1274.42L628.691 1184.89L609.15 1088.83L575.252 1085.35" stroke="#AB40FF" stroke-width="38.272" stroke-linecap="round" stroke-linejoin="round"/>
<path d="M926.852 401.12L881.255 461.388L937.223 492.899L951.059 566.352L1031.8 556.195L1088.12 617.896L1031.8 676.899L1088.12 744.538" stroke="#FF63DD" stroke-width="38.272" stroke-linecap="round" stroke-linejoin="round"/>
<path d="M736 1048.21L796.72 1019.8L892.461 1048.21V926.918L983.59 962.467L1075.3 926.918" stroke="#FF9950" stroke-width="38.272" stroke-linecap="round" stroke-linejoin="round"/>
<path d="M545.891 286.083L555.459 205.491L620.963 227.792L642.602 141.827L686.447 237.178" stroke="#FFEE59" stroke-width="38.272" stroke-linecap="round" stroke-linejoin="round"/>
<path d="M136.951 163.284L205.399 196.477L231.198 249.587L159.775 301.399L226.699 393.654" stroke="#FF596D" stroke-width="38.272" stroke-linecap="round" stroke-linejoin="round"/>
<path d="M1102.18 868.402C1189.83 817.794 1189.02 818.869 1189.02 818.869L1197.69 891.075L1266.58 868.402L1296.41 983.218L1368.31 937.512" stroke="#FF9950" stroke-width="38.272" stroke-linecap="round" stroke-linejoin="round"/>
<path d="M500.456 478.842L470.394 589.625L500.456 643.706L600.101 624.822L575.281 716.286L627.321 730.408" stroke="#FF596D" stroke-width="38.272" stroke-linecap="round" stroke-linejoin="round"/>
<path d="M564.458 1002.33L588.873 935.456L630.163 921.693L642.653 865.442L542.317 808.128" stroke="#40FF92" stroke-width="38.272" stroke-linecap="round" stroke-linejoin="round"/>
<path d="M316.48 792.339L398.376 772.988L434.448 925.649L495.672 911.183" stroke="#AB40FF" stroke-width="38.272" stroke-linecap="round" stroke-linejoin="round"/>
<path d="M743.066 134.773L765.277 196.657L865.584 160.655L889.917 228.451" stroke="#FF63DD" stroke-width="38.272" stroke-linecap="round" stroke-linejoin="round"/>
<path d="M609.85 51.2144L662.852 87.3226L725.921 -5.25483L783.987 34.3033" stroke="#AB40FF" stroke-width="38.272" stroke-linecap="round" stroke-linejoin="round"/>
<path d="M219.034 1403.85H250.467V1330.39H289.248" stroke="#FF63DD" stroke-width="38.272" stroke-linecap="round" stroke-linejoin="round"/>
<path d="M1274.83 412.602L1372.27 444.508L1365.25 517.625L1403.85 521.332" stroke="#FF9950" stroke-width="38.272" stroke-linecap="round" stroke-linejoin="round"/>
<path d="M657.578 1411.26L645.164 1380.35L532.609 1425.55L520.941 1396.5" stroke="#FF63DD" stroke-width="38.272" stroke-linecap="round" stroke-linejoin="round"/>
<path d="M47.104 150.438L47.104 87.0042L109.37 87.0042L109.37 27.3793" stroke="#FF63DD" stroke-width="38.272" stroke-linecap="round" stroke-linejoin="round"/>
<path d="M998.752 435.867C1086.41 385.259 1108.32 372.607 1108.32 372.607L1166.96 474.171L1200.48 454.817" stroke="#FFEE59" stroke-width="38.272" stroke-linecap="round" stroke-linejoin="round"/>
<path d="M842.067 1277.25L808.128 1403.92L843.246 1413.33" stroke="#40FF92" stroke-width="38.272" stroke-linecap="round" stroke-linejoin="round"/>
<path d="M1285.81 1100.82L1218.73 1157.9L1091.66 1008.58L1158.74 951.501" stroke="#AB40FF" stroke-width="38.272" stroke-linecap="round" stroke-linejoin="round"/>
<path d="M723.59 1130.79L804.994 1206.56L757.787 1257.28" stroke="#FF596D" stroke-width="38.272" stroke-linecap="round" stroke-linejoin="round"/>
<path d="M162.363 714.748L182.216 777.016L244.204 757.253" stroke="#FFEE59" stroke-width="38.272" stroke-linecap="round" stroke-linejoin="round"/>
<path d="M314.653 147.659L268.433 77.1329L213.145 113.366" stroke="#40FF92" stroke-width="38.272" stroke-linecap="round" stroke-linejoin="round"/>
<path d="M609.85 1523.21L662.852 1559.32L725.921 1466.74L783.987 1506.3" stroke="#AB40FF" stroke-width="38.272" stroke-linecap="round" stroke-linejoin="round"/>
<path d="M718.14 705.927L766.588 723.992L820.961 578.174L723.562 570.547L665.102 520.058" stroke="#FFEE59" stroke-width="38.272" stroke-linecap="round" stroke-linejoin="round"/>
<path d="M371.984 1378.97H328.698V1507.62H467.949" stroke="#40FF92" stroke-width="38.272" stroke-linecap="round" stroke-linejoin="round"/>
<path d="M371.984 -93.0305H328.698V35.6223H467.949" stroke="#40FF92" stroke-width="38.272" stroke-linecap="round" stroke-linejoin="round"/>
<path d="M120.617 1446.07L151.42 1421.66L44.1799 1290.35L68.7382 1268.78" stroke="#AB40FF" stroke-width="38.272" stroke-linecap="round" stroke-linejoin="round"/>
<path d="M1422.73 910.623L1405.17 791.053L1333.93 801.512" stroke="#FFEE59" stroke-width="38.272" stroke-linecap="round" stroke-linejoin="round"/>
<path d="M974.022 1078.41L989.991 1134.93L1091.13 1106.35" stroke="#FF596D" stroke-width="38.272" stroke-linecap="round" stroke-linejoin="round"/>
<path d="M967.737 1372.85L979.089 1393.2L1047.61 1354.98L968.94 1213.96" stroke="#40BAFF" stroke-width="38.272" stroke-linecap="round" stroke-linejoin="round"/>
<path d="M938.458 646.402L914.328 632.224L854.203 734.551L899.392 800.547L974.249 754.75L1043.21 827.706" stroke="#40FF92" stroke-width="38.272" stroke-linecap="round" stroke-linejoin="round"/>
<path d="M-5.58429 1169.53L104.751 1097.58L179.878 1159.42L212.033 1262.12L266.233 1226.78" stroke="#FF9950" stroke-width="38.272" stroke-linecap="round" stroke-linejoin="round"/>
<path d="M1466.42 1169.53L1576.75 1097.58L1684.03 1262.12L1738.23 1226.78" stroke="#FF9950" stroke-width="38.272" stroke-linecap="round" stroke-linejoin="round"/>
<path d="M352.105 1250.77L448.431 1190.16L502.274 1275.73L466.091 1298.49" stroke="#FFEE59" stroke-width="38.272" stroke-linecap="round" stroke-linejoin="round"/>
<path d="M31.7956 503.056L133.584 509.606L204.105 468.685L266.579 509.606" stroke="#FF63DD" stroke-width="38.272" stroke-linecap="round" stroke-linejoin="round"/>
<path d="M50.4895 915.521L99.8221 949.038L146.884 879.77" stroke="#FF596D" stroke-width="38.272" stroke-linecap="round" stroke-linejoin="round"/>
<path d="M346.067 234.645V276.736H459.558L474.205 191.213L459.558 105.101" stroke="#FF9950" stroke-width="38.272" stroke-linecap="round" stroke-linejoin="round"/>
<path d="M701.114 912.698L786.568 960.385L821.43 897.915" stroke="#40BAFF" stroke-width="38.272" stroke-linecap="round" stroke-linejoin="round"/>
<path d="M939.43 115.026L984.3 -8.68486L1074.11 23.888" stroke="#40FF92" stroke-width="38.272" stroke-linecap="round" stroke-linejoin="round"/>
<path d="M939.43 1587.03L984.3 1463.32L1074.11 1495.89" stroke="#40FF92" stroke-width="38.272" stroke-linecap="round" stroke-linejoin="round"/>
<path d="M1389.59 1636.54L1336.11 1489.51L1208.29 1535.99L1158.02 1397.78" stroke="#FF596D" stroke-width="38.272" stroke-linecap="round" stroke-linejoin="round"/>
<path d="M1389.59 164.544L1336.11 17.5047L1208.29 63.9927L1158.02 -74.2162" stroke="#FF596D" stroke-width="38.272" stroke-linecap="round" stroke-linejoin="round"/>
<path d="M1283.07 156.225L1260.36 296.913L1350.74 311.506" stroke="#40BAFF" stroke-width="38.272" stroke-linecap="round" stroke-linejoin="round"/>
<path d="M1197.42 545.082L1158.17 710.923L1261.61 735.409" stroke="#AB40FF" stroke-width="38.272" stroke-linecap="round" stroke-linejoin="round"/>
<path d="M371.642 525.373L355.488 401.182L494.029 383.161" stroke="#40BAFF" stroke-width="38.272" stroke-linecap="round" stroke-linejoin="round"/>
<path d="M-31.0591 620.595H44.8961V746.893H-5.33238" stroke="#40BAFF" stroke-width="38.272" stroke-linecap="round" stroke-linejoin="round"/>
<path d="M1440.94 620.595H1516.9V746.893H1466.67" stroke="#40BAFF" stroke-width="38.272" stroke-linecap="round" stroke-linejoin="round"/>
<path d="M219 653.963L297.417 653.963L355.12 606.685L252.301 573.123" stroke="#40FF92" stroke-width="38.272" stroke-linecap="round" stroke-linejoin="round"/>
<path d="M1429.57 361.034L1542.31 326.231L1528.21 280.563" stroke="#FFEE59" stroke-width="38.272" stroke-linecap="round" stroke-linejoin="round"/>
<path d="M-42.4266 361.034L70.3084 326.231L56.2103 280.563" stroke="#FFEE59" stroke-width="38.272" stroke-linecap="round" stroke-linejoin="round"/>
<path d="M1322.15 1227.86L1402.23 1210.28L1414.01 1263.91" stroke="#FF596D" stroke-width="38.272" stroke-linecap="round" stroke-linejoin="round"/>
<path d="M988.301 235.527L1056.34 304.954L1151.16 212.029L1123.75 184.056" stroke="#40BAFF" stroke-width="38.272" stroke-linecap="round" stroke-linejoin="round"/>
<path d="M472.663 1053.51L406.125 1086.88" stroke="#FF63DD" stroke-width="38.272" stroke-linecap="round" stroke-linejoin="round"/>
<path d="M1109.59 1287.08L1132.12 1202.48" stroke="#AB40FF" stroke-width="38.272" stroke-linecap="round" stroke-linejoin="round"/>
<path d="M1386.04 1100.8L1411.8 1037.76" stroke="#40FF92" stroke-width="38.272" stroke-linecap="round" stroke-linejoin="round"/>
<path d="M588.211 492.237L616.326 344.742" stroke="#40FF92" stroke-width="38.272" stroke-linecap="round" stroke-linejoin="round"/>
<path d="M62.4128 418.49L109.37 418.49" stroke="#40FF92" stroke-width="38.272" stroke-linecap="round" stroke-linejoin="round"/>
<path d="M281.741 312.653L292.045 343.859" stroke="#FF63DD" stroke-width="38.272" stroke-linecap="round" stroke-linejoin="round"/>
<path d="M124.04 626.461L141.656 582.934" stroke="#AB40FF" stroke-width="38.272" stroke-linecap="round" stroke-linejoin="round"/>
<path d="M354.588 960.323L340.326 915.584" stroke="#40FF92" stroke-width="38.272" stroke-linecap="round" stroke-linejoin="round"/>
<path d="M884.361 1167.43L870.099 1122.69" stroke="#40FF92" stroke-width="38.272" stroke-linecap="round" stroke-linejoin="round"/>
<path d="M1034.23 131.597L1074.12 108.633" stroke="#FF63DD" stroke-width="38.272" stroke-linecap="round" stroke-linejoin="round"/>
<path d="M641.498 1010.82H657.542" stroke="#FF63DD" stroke-width="38.272" stroke-linecap="round" stroke-linejoin="round"/>
<path d="M1200.71 142.637H1216.76" stroke="#AB40FF" stroke-width="38.272" stroke-linecap="round" stroke-linejoin="round"/>
<path d="M953.267 860.826L966.179 870.35" stroke="#FF596D" stroke-width="38.272" stroke-linecap="round" stroke-linejoin="round"/>
<path d="M1228.52 1036.42L1223.38 998.163" stroke="#40FF92" stroke-width="38.272" stroke-linecap="round" stroke-linejoin="round"/>
<path d="M800.474 492.237H816.518" stroke="#40BAFF" stroke-width="38.272" stroke-linecap="round" stroke-linejoin="round"/>
<path d="M669.907 622.067L669.76 655.187" stroke="#AB40FF" stroke-width="38.272" stroke-linecap="round" stroke-linejoin="round"/>
<path d="M1075 481.344L1097.99 505.184" stroke="#40FF92" stroke-width="38.272" stroke-linecap="round" stroke-linejoin="round"/>
<path d="M1440.94 211.085L1422.72 234.924" stroke="#40FF92" stroke-width="38.272" stroke-linecap="round" stroke-linejoin="round"/>
<path d="M385.811 126.886L388.032 159.932" stroke="#AB40FF" stroke-width="38.272" stroke-linecap="round" stroke-linejoin="round"/>
<path d="M535.366 66.6816L551.13 120.188" stroke="#40BAFF" stroke-width="38.272" stroke-linecap="round" stroke-linejoin="round"/>
<path d="M877.091 30.7771L860.912 59.6768" stroke="#FFEE59" stroke-width="38.272" stroke-linecap="round" stroke-linejoin="round"/>
<path d="M46.368 828.736H62.4128" stroke="#40FF92" stroke-width="38.272" stroke-linecap="round" stroke-linejoin="round"/>
<path d="M499.8 1138.03L507.489 1152.11" stroke="#40FF92" stroke-width="38.272" stroke-linecap="round" stroke-linejoin="round"/>
<path d="M725.073 1352.21L722.232 1368" stroke="#FFEE59" stroke-width="38.272" stroke-linecap="round" stroke-linejoin="round"/>
<path d="M912.777 1305.64L918.582 1320.6" stroke="#FF63DD" stroke-width="38.272" stroke-linecap="round" stroke-linejoin="round"/>
<path d="M1256.06 1405.76L1261.86 1420.72" stroke="#40BAFF" stroke-width="38.272" stroke-linecap="round" stroke-linejoin="round"/>
<path d="M162.362 1010.82L74.7774 1033.21" stroke="#40BAFF" stroke-width="38.272" stroke-linecap="round" stroke-linejoin="round"/>
<path d="M438.157 1411.42L443.424 1396.27" stroke="#40FF92" stroke-width="38.272" stroke-linecap="round" stroke-linejoin="round"/>
<path d="M411.044 679.181L480.111 748.776" stroke="#FF63DD" stroke-width="38.272" stroke-linecap="round" stroke-linejoin="round"/>
<path d="M682.272 800.474L792.451 811.808" stroke="#FF63DD" stroke-width="38.272" stroke-linecap="round" stroke-linejoin="round"/>
<path d="M1297.72 584.531L1361.16 679.917" stroke="#40FF92" stroke-width="38.272" stroke-linecap="round" stroke-linejoin="round"/>
<path d="M1180.69 313.83L1197.53 357.662" stroke="#FF596D" stroke-width="38.272" stroke-linecap="round" stroke-linejoin="round"/>
<path d="M937.013 303.432L890.979 294.167" stroke="#FF9950" stroke-width="38.272" stroke-linecap="round" stroke-linejoin="round"/>
</g>
</g>
<defs>
<clipPath id="clip0_6594_21164">
<rect width="1440" height="1472" rx="58.88" fill="white"/>
</clipPath>
</defs>
</svg>
