<svg width="286" height="286" viewBox="0 0 286 286" fill="none" xmlns="http://www.w3.org/2000/svg">
<rect width="286" height="286" rx="39.4464" fill="black"/>
<path d="M142.806 38.7292L52.1353 91.0731V195.776L142.806 248.12L233.477 195.776V91.0731L142.806 38.7292ZM212.4 162.082L193.75 194.391L156.555 157.196L147.841 162.231L161.456 213.04H124.157L137.771 162.231L129.057 157.196L91.8624 194.391L73.2129 162.096L124.023 148.482V138.412L73.2129 124.797L91.8624 92.5031L129.057 129.698L137.771 124.663L124.157 73.8535H161.456L147.841 124.663L156.555 129.698L193.75 92.5031L212.4 124.812L161.59 138.427V148.497L212.4 162.111V162.082Z" fill="white"/>
</svg>
