<svg width="38" height="39" viewBox="0 0 38 39" fill="none" xmlns="http://www.w3.org/2000/svg">
<path d="M18.999 28.8632C19.3957 28.8632 19.722 28.7356 19.978 28.4802C20.2337 28.2252 20.3615 27.8994 20.3615 27.5027C20.3615 27.1061 20.2338 26.7797 19.9785 26.5237C19.7235 26.2681 19.3977 26.1402 19.001 26.1402C18.6043 26.1402 18.278 26.2677 18.022 26.5227C17.7663 26.7781 17.6385 27.1041 17.6385 27.5007C17.6385 27.8974 17.7662 28.2237 18.0215 28.4797C18.2765 28.7354 18.6023 28.8632 18.999 28.8632ZM17.977 21.8092H20.246V9.33273H17.977V21.8092ZM19.0165 38.4017C16.3848 38.4017 13.92 37.9031 11.622 36.9057C9.32367 35.9084 7.311 34.5466 5.584 32.8202C3.857 31.0939 2.4945 29.0809 1.4965 26.7812C0.498833 24.4819 0 22.0149 0 19.3802C0 16.7582 0.498667 14.2937 1.496 11.9867C2.49333 9.67973 3.85517 7.67107 5.5815 5.96073C7.30783 4.2504 9.32083 2.89623 11.6205 1.89823C13.9198 0.900566 16.3868 0.401733 19.0215 0.401733C21.6435 0.401733 24.108 0.900399 26.415 1.89773C28.722 2.89507 30.7307 4.24857 32.441 5.95823C34.1513 7.6679 35.5055 9.6784 36.5035 11.9897C37.5012 14.3011 38 16.7662 38 19.3852C38 22.0169 37.5013 24.4817 36.504 26.7797C35.5067 29.0781 34.1532 31.0876 32.4435 32.8082C30.7338 34.5292 28.7233 35.8917 26.412 36.8957C24.1007 37.8997 21.6355 38.4017 19.0165 38.4017ZM19.025 36.1322C23.6647 36.1322 27.6088 34.5029 30.8575 31.2442C34.1062 27.9852 35.7305 24.0294 35.7305 19.3767C35.7305 14.7371 34.1093 10.7929 30.867 7.54423C27.6247 4.29557 23.669 2.67123 19 2.67123C14.364 2.67123 10.4165 4.2924 7.1575 7.53473C3.89883 10.7771 2.2695 14.7327 2.2695 19.4017C2.2695 24.0377 3.89883 27.9852 7.1575 31.2442C10.4165 34.5029 14.3723 36.1322 19.025 36.1322Z" fill="#FF627E"/>
</svg>
