<svg width="40" height="40" viewBox="0 0 40 40" fill="none" xmlns="http://www.w3.org/2000/svg">
<path d="M39.8557 17.586C39.8351 17.41 39.8112 17.234 39.7858 17.0564C39.7858 17.0467 39.7842 17.0386 39.7826 17.0289C39.7556 16.8432 39.7269 16.6591 39.6935 16.4734C39.6283 16.1004 39.5536 15.7307 39.4693 15.3657L10.5118 20.5506C10.2367 15.7355 13.5585 11.3531 18.3479 10.4957L16.5256 0C6.03407 1.87793 -1.11189 11.7923 0.142707 22.4076C0.142707 22.4076 0.142707 22.4108 0.142707 22.414C0.163378 22.59 0.18723 22.7676 0.212672 22.9436C0.212672 22.9533 0.214262 22.9614 0.215852 22.9711C0.242884 23.1568 0.271506 23.3409 0.304898 23.5266C0.370093 23.8996 0.444828 24.2693 0.529104 24.6343L29.4866 19.4494C29.7617 24.2645 26.44 28.6469 21.6505 29.5043L23.4728 40C33.9644 38.1221 41.1119 28.206 39.8573 17.5924C39.8573 17.5924 39.8573 17.5892 39.8573 17.586H39.8557Z" fill="white"/>
</svg>
