<svg width="30" height="40" viewBox="0 0 30 40" fill="none" xmlns="http://www.w3.org/2000/svg">
<path d="M2.8845 39.5C2.09817 39.5 1.42083 39.2158 0.8525 38.6475C0.284167 38.0792 0 37.4018 0 36.6155V16.608C0 15.8113 0.284167 15.1313 0.8525 14.568C1.42083 14.0047 2.09817 13.723 2.8845 13.723H6.3655V9.1345C6.3655 6.73817 7.20617 4.7 8.8875 3.02C10.5688 1.34 12.6085 0.5 15.0065 0.5C17.4048 0.5 19.4423 1.34 21.119 3.02C22.796 4.7 23.6345 6.73817 23.6345 9.1345V13.723H27.1155C27.9018 13.723 28.5792 14.0047 29.1475 14.568C29.7158 15.1313 30 15.8113 30 16.608V36.6155C30 37.4018 29.7158 38.0792 29.1475 38.6475C28.5792 39.2158 27.9018 39.5 27.1155 39.5H2.8845ZM2.8845 37.2305H27.1155C27.2948 37.2305 27.4422 37.1728 27.5575 37.0575C27.6728 36.9422 27.7305 36.7948 27.7305 36.6155V16.608C27.7305 16.4283 27.6728 16.2808 27.5575 16.1655C27.4422 16.0502 27.2948 15.9925 27.1155 15.9925H2.8845C2.70517 15.9925 2.55783 16.0502 2.4425 16.1655C2.32717 16.2808 2.2695 16.4283 2.2695 16.608V36.6155C2.2695 36.7948 2.32717 36.9422 2.4425 37.0575C2.55783 37.1728 2.70517 37.2305 2.8845 37.2305ZM15.0085 30C15.9412 30 16.7377 29.6745 17.398 29.0235C18.0583 28.3725 18.3885 27.589 18.3885 26.673C18.3885 25.7883 18.0555 24.9922 17.3895 24.2845C16.7238 23.5768 15.9245 23.223 14.9915 23.223C14.0588 23.223 13.2623 23.5768 12.602 24.2845C11.9417 24.9922 11.6115 25.7967 11.6115 26.698C11.6115 27.5993 11.9445 28.375 12.6105 29.025C13.2762 29.675 14.0755 30 15.0085 30ZM8.6345 13.723H21.3655V9.1345C21.3655 7.3665 20.7473 5.86367 19.511 4.626C18.2747 3.38833 16.7733 2.7695 15.007 2.7695C13.2407 2.7695 11.737 3.38833 10.496 4.626C9.255 5.86367 8.6345 7.3665 8.6345 9.1345V13.723Z" fill="#FF627E"/>
</svg>
