<svg width="38" height="39" viewBox="0 0 38 39" fill="none" xmlns="http://www.w3.org/2000/svg">
<path d="M8.497 21.5362C9.09133 21.5362 9.59483 21.3282 10.0075 20.9122C10.4205 20.4962 10.627 19.9911 10.627 19.3967C10.627 18.8027 10.419 18.2992 10.003 17.8862C9.587 17.4736 9.08183 17.2672 8.4875 17.2672C7.89317 17.2672 7.38967 17.4752 6.977 17.8912C6.564 18.3072 6.3575 18.8124 6.3575 19.4067C6.3575 20.0007 6.5655 20.5042 6.9815 20.9172C7.3975 21.3299 7.90267 21.5362 8.497 21.5362ZM19.005 21.5362C19.599 21.5362 20.1025 21.3282 20.5155 20.9122C20.9282 20.4962 21.1345 19.9911 21.1345 19.3967C21.1345 18.8027 20.9265 18.2992 20.5105 17.8862C20.0945 17.4736 19.5893 17.2672 18.995 17.2672C18.401 17.2672 17.8975 17.4752 17.4845 17.8912C17.0718 18.3072 16.8655 18.8124 16.8655 19.4067C16.8655 20.0007 17.0735 20.5042 17.4895 20.9172C17.9055 21.3299 18.4107 21.5362 19.005 21.5362ZM29.4815 21.5362C30.0758 21.5362 30.5795 21.3282 30.9925 20.9122C31.4052 20.4962 31.6115 19.9911 31.6115 19.3967C31.6115 18.8027 31.4035 18.2992 30.9875 17.8862C30.5715 17.4736 30.0663 17.2672 29.472 17.2672C28.878 17.2672 28.3745 17.4752 27.9615 17.8912C27.5488 18.3072 27.3425 18.8124 27.3425 19.4067C27.3425 20.0007 27.5505 20.5042 27.9665 20.9172C28.3825 21.3299 28.8875 21.5362 29.4815 21.5362ZM19.0165 38.4017C16.3848 38.4017 13.9185 37.9031 11.6175 36.9057C9.31683 35.9084 7.30433 34.5466 5.58 32.8202C3.85567 31.0939 2.4945 29.0809 1.4965 26.7812C0.498833 24.4819 0 22.0181 0 19.3897C0 16.7614 0.498667 14.2937 1.496 11.9867C2.49333 9.67973 3.85517 7.67107 5.5815 5.96073C7.30783 4.2504 9.32083 2.89623 11.6205 1.89823C13.9198 0.900566 16.3837 0.401733 19.012 0.401733C21.6403 0.401733 24.108 0.900399 26.415 1.89773C28.722 2.89507 30.7307 4.24857 32.441 5.95823C34.1513 7.6679 35.5055 9.6784 36.5035 11.9897C37.5012 14.3011 38 16.7662 38 19.3852C38 22.0169 37.5013 24.4832 36.504 26.7842C35.5067 29.0849 34.1532 31.0944 32.4435 32.8127C30.7338 34.5307 28.7233 35.8917 26.412 36.8957C24.1007 37.8997 21.6355 38.4017 19.0165 38.4017ZM19.0155 36.1322C23.6615 36.1322 27.6088 34.5029 30.8575 31.2442C34.1062 27.9852 35.7305 24.0326 35.7305 19.3862C35.7305 14.7402 34.1098 10.7929 30.8685 7.54423C27.6268 4.29557 23.6707 2.67123 19 2.67123C14.364 2.67123 10.4165 4.2919 7.1575 7.53323C3.89883 10.7749 2.2695 14.7311 2.2695 19.4017C2.2695 24.0377 3.89883 27.9852 7.1575 31.2442C10.4165 34.5029 14.3692 36.1322 19.0155 36.1322Z" fill="#FFD028"/>
</svg>
