<svg width="240" height="83" viewBox="0 0 240 83" fill="none" xmlns="http://www.w3.org/2000/svg">
<path d="M52.99 63.3955C52.99 75.2355 42.46 82.6255 26.77 82.6255C11.08 82.6255 0.25 75.9455 0.25 61.5655H16.45C16.45 67.2355 20.8 69.8655 27.08 69.8655C33.36 69.8655 37.41 67.0355 37.41 63.5855C37.41 60.1355 33.66 57.9155 26.78 56.7055C10.38 53.7655 1.88 48.4055 1.88 37.9755C1.88 27.5455 12.21 20.0555 26.58 20.0555C40.95 20.0555 51.58 26.5355 51.58 39.2855H35.38C35.38 35.0355 31.33 33.0055 26.27 33.0055C21.21 33.0055 17.46 35.1355 17.46 37.7655C17.46 40.3955 21 42.1155 26.77 43.1355C43.37 46.0755 52.99 51.8455 52.99 63.3855V63.3955Z" fill="white"/>
<path d="M118.791 51.4556C118.791 68.7656 104.721 82.6356 87.4113 82.6356C70.1013 82.6356 56.0312 68.7656 56.0312 51.4556C56.0312 34.1456 70.1013 20.0756 87.4113 20.0756C104.721 20.0756 118.791 34.1456 118.791 51.4556ZM102.591 51.4556C102.591 41.9356 95.8113 34.2456 87.4113 34.2456C79.0113 34.2456 72.2312 41.9356 72.2312 51.4556C72.2312 60.9756 79.0113 68.6656 87.4113 68.6656C95.8113 68.6656 102.591 60.9756 102.591 51.4556Z" fill="white"/>
<path d="M162.508 81.3156L145.198 54.4856L139.028 60.8656V81.3156H122.828V0.335571H139.028V40.6256L157.248 21.5956H177.698L156.238 43.3556L182.048 81.3156H162.508Z" fill="white"/>
<path d="M239.748 51.4556C239.748 68.7656 225.678 82.6356 208.368 82.6356C191.058 82.6356 176.988 68.7656 176.988 51.4556C176.988 34.1456 191.058 20.0756 208.368 20.0756C225.678 20.0756 239.748 34.1456 239.748 51.4556ZM223.548 51.4556C223.548 41.9356 216.768 34.2456 208.368 34.2456C199.968 34.2456 193.188 41.9356 193.188 51.4556C193.188 60.9756 199.968 68.6656 208.368 68.6656C216.768 68.6656 223.548 60.9756 223.548 51.4556Z" fill="white"/>
</svg>
