<svg width="38" height="39" viewBox="0 0 38 39" fill="none" xmlns="http://www.w3.org/2000/svg">
<path d="M16.05 27.8287L29.527 14.3517L27.7845 12.6402L16.05 24.3942L10.127 18.4712L8.4345 20.1827L16.05 27.8287ZM19.0035 38.4017C16.3962 38.4017 13.9395 37.9031 11.6335 36.9057C9.3275 35.9084 7.311 34.5466 5.584 32.8202C3.857 31.0939 2.4945 29.0782 1.4965 26.7732C0.498833 24.4686 0 22.0126 0 19.4052C0 16.7772 0.498667 14.3071 1.496 11.9947C2.49333 9.6824 3.85517 7.67107 5.5815 5.96073C7.30783 4.2504 9.3235 2.89623 11.6285 1.89823C13.9332 0.900566 16.3892 0.401733 18.9965 0.401733C21.6245 0.401733 24.0947 0.900399 26.407 1.89773C28.7193 2.89507 30.7307 4.24857 32.441 5.95823C34.1513 7.6679 35.5055 9.6784 36.5035 11.9897C37.5012 14.3011 38 16.7706 38 19.3982C38 22.0056 37.5013 24.4622 36.504 26.7682C35.5067 29.0742 34.1532 31.0907 32.4435 32.8177C30.7338 34.5447 28.7233 35.9072 26.412 36.9052C24.1007 37.9029 21.6312 38.4017 19.0035 38.4017ZM19 36.1322C23.6563 36.1322 27.6088 34.5029 30.8575 31.2442C34.1062 27.9852 35.7305 24.0377 35.7305 19.4017C35.7305 14.7454 34.1062 10.7929 30.8575 7.54423C27.6088 4.29557 23.6563 2.67123 19 2.67123C14.364 2.67123 10.4165 4.29557 7.1575 7.54423C3.89883 10.7929 2.2695 14.7454 2.2695 19.4017C2.2695 24.0377 3.89883 27.9852 7.1575 31.2442C10.4165 34.5029 14.364 36.1322 19 36.1322Z" fill="#4FE3C1"/>
</svg>
