<svg width="18" height="12" viewBox="0 0 18 12" fill="none" xmlns="http://www.w3.org/2000/svg">
<path d="M9.00234 9.14752C9.8772 9.14752 10.6202 8.84134 11.2313 8.22898C11.8424 7.61662 12.148 6.87301 12.148 5.99815C12.148 5.12328 11.8418 4.3803 11.2294 3.76919C10.6171 3.15808 9.87346 2.85252 8.99859 2.85252C8.12373 2.85252 7.38075 3.1587 6.76964 3.77106C6.15852 4.38342 5.85297 5.12703 5.85297 6.0019C5.85297 6.87676 6.15915 7.61974 6.77151 8.23085C7.38387 8.84196 8.12748 9.14752 9.00234 9.14752ZM9.00047 8.00002C8.44491 8.00002 7.97269 7.80558 7.5838 7.41669C7.19491 7.0278 7.00047 6.55558 7.00047 6.00002C7.00047 5.44446 7.19491 4.97224 7.5838 4.58335C7.97269 4.19447 8.44491 4.00002 9.00047 4.00002C9.55602 4.00002 10.0282 4.19447 10.4171 4.58335C10.806 4.97224 11.0005 5.44446 11.0005 6.00002C11.0005 6.55558 10.806 7.0278 10.4171 7.41669C10.0282 7.80558 9.55602 8.00002 9.00047 8.00002ZM9.00151 11.5834C7.13248 11.5834 5.4295 11.0756 3.89255 10.06C2.35561 9.0446 1.20783 7.69127 0.449219 6.00002C1.20783 4.30877 2.35519 2.95544 3.8913 1.94002C5.42755 0.924465 7.13026 0.416687 8.99943 0.416687C10.8685 0.416687 12.5714 0.924465 14.1084 1.94002C15.6453 2.95544 16.7931 4.30877 17.5517 6.00002C16.7931 7.69127 15.6457 9.0446 14.1096 10.06C12.5734 11.0756 10.8707 11.5834 9.00151 11.5834ZM9.00047 10.5C10.556 10.5 11.9935 10.0972 13.313 9.29169C14.6324 8.48613 15.6463 7.38891 16.3546 6.00002C15.6463 4.61113 14.6324 3.51391 13.313 2.70835C11.9935 1.9028 10.556 1.50002 9.00047 1.50002C7.44491 1.50002 6.00741 1.9028 4.68797 2.70835C3.36852 3.51391 2.35464 4.61113 1.6463 6.00002C2.35464 7.38891 3.36852 8.48613 4.68797 9.29169C6.00741 10.0972 7.44491 10.5 9.00047 10.5Z" fill="white"/>
</svg>
